<?xml version="1.0" encoding="UTF-8" standalone="no"?>
<!DOCTYPE svg PUBLIC "-//W3C//DTD SVG 1.1//EN" "http://www.w3.org/Graphics/SVG/1.1/DTD/svg11.dtd">
<svg width="100%" height="100%" viewBox="0 0 746 228" version="1.1" xmlns="http://www.w3.org/2000/svg" xmlns:xlink="http://www.w3.org/1999/xlink" xml:space="preserve" xmlns:serif="http://www.serif.com/" style="fill-rule:evenodd;clip-rule:evenodd;stroke-linejoin:round;stroke-miterlimit:2;">
    <g id="ArtBoard1" transform="matrix(1,0,0,1,-31.9688,-187.099)">
        <rect x="31.969" y="187.099" width="745.711" height="227.525" style="fill:none;"/>
        <g transform="matrix(0.616773,0,0,0.616773,-74.5055,96.5427)">
            <g transform="matrix(353.997,0,0,353.997,184.598,442.56)">
                <path d="M-0.002,-0.767C0.076,-0.767 0.115,-0.741 0.115,-0.688L0.125,-0.688L0.125,-0.718L0.145,-0.718C0.171,-0.642 0.193,-0.537 0.213,-0.405L0.203,-0.405L0.213,-0.396L0.213,-0.308L0.232,-0.308L0.223,-0.298L0.223,-0.249L0.232,-0.249C0.258,-0.314 0.31,-0.402 0.389,-0.513L0.398,-0.503L0.418,-0.532L0.408,-0.532L0.389,-0.513L0.389,-0.522L0.496,-0.64L0.516,-0.64L0.555,-0.601L0.506,-0.542L0.535,-0.542C0.535,-0.562 0.555,-0.585 0.594,-0.61L0.594,-0.581C0.568,-0.578 0.555,-0.568 0.555,-0.552L0.574,-0.552C0.574,-0.571 0.584,-0.581 0.604,-0.581L0.604,-0.552C0.57,-0.532 0.521,-0.474 0.457,-0.376L0.252,-0.005L0.232,-0.005L0.223,-0.015C0.203,-0.015 0.193,-0.002 0.193,0.024L0.174,0.024C0.128,0.024 0.105,0.002 0.105,-0.044L0.115,-0.073L0.096,-0.054L0.096,-0.024L0.105,-0.015L0.105,-0.005L0.096,0.005L0.076,0.005L0.066,-0.044L0.076,-0.073L0.066,-0.073L0.076,-0.083L0.076,-0.142C0.068,-0.5 0.045,-0.679 0.008,-0.679L0.018,-0.708L-0.002,-0.767ZM0.467,-0.649L0.467,-0.64L0.428,-0.601L0.418,-0.601C0.433,-0.629 0.45,-0.645 0.467,-0.649ZM0.398,-0.581L0.398,-0.571L0.311,-0.454L0.311,-0.464C0.326,-0.501 0.355,-0.54 0.398,-0.581ZM0.477,-0.522L0.447,-0.474L0.457,-0.474L0.486,-0.513L0.486,-0.522L0.477,-0.522ZM0.086,-0.474L0.086,-0.425L0.096,-0.425L0.096,-0.474L0.086,-0.474ZM0.281,-0.425L0.291,-0.425L0.291,-0.396L0.281,-0.386L0.271,-0.386L0.271,-0.396L0.281,-0.425ZM0.096,-0.396L0.096,-0.288L0.105,-0.288L0.105,-0.396L0.096,-0.396ZM0.271,-0.386L0.271,-0.376L0.242,-0.337L0.242,-0.347L0.271,-0.386ZM0.291,-0.19L0.291,-0.181L0.32,-0.21L0.32,-0.22L0.291,-0.19ZM0.242,-0.112L0.252,-0.103L0.262,-0.103L0.281,-0.161C0.268,-0.158 0.255,-0.142 0.242,-0.112Z" style="fill-rule:nonzero;"/>
            </g>
            <g transform="matrix(353.997,0,0,353.997,395.476,442.56)">
                <path d="M0.152,-0.771C0.165,-0.771 0.171,-0.751 0.171,-0.712L0.191,-0.712L0.22,-0.731L0.23,-0.722L0.181,-0.175C0.222,-0.194 0.333,-0.217 0.513,-0.243L0.523,-0.243L0.523,-0.233C0.295,-0.196 0.181,-0.167 0.181,-0.146L0.289,-0.175L0.289,-0.165L0.474,-0.204L0.474,-0.194L0.484,-0.204L0.494,-0.204L0.503,-0.194L0.552,-0.204L0.591,-0.204L0.66,-0.194L0.66,-0.185C0.66,-0.165 0.611,-0.149 0.513,-0.136L0.513,-0.126L0.523,-0.136L0.533,-0.136L0.601,-0.126L0.611,-0.136L0.611,-0.106L0.289,-0.028L0.083,0.05L0.054,0.05L0.015,0.001L0.005,0.001L0.005,-0.009C0.005,-0.025 0.018,-0.035 0.044,-0.038L0.044,-0.067L0.015,-0.106L0.054,-0.546L0.064,-0.546L0.064,-0.507L0.054,-0.438L0.074,-0.438L0.054,-0.312L0.064,-0.302L0.054,-0.263L0.054,-0.214L0.064,-0.214L0.103,-0.731C0.116,-0.731 0.123,-0.741 0.123,-0.761L0.132,-0.771L0.152,-0.771Z" style="fill-rule:nonzero;"/>
            </g>
            <g transform="matrix(353.997,0,0,353.997,616.551,442.56)">
                <path d="M0.395,-0.806C0.399,-0.787 0.425,-0.777 0.473,-0.777L0.551,-0.435L0.619,-0.435L0.619,-0.425L0.561,-0.416L0.561,-0.406C0.58,-0.406 0.59,-0.399 0.59,-0.386L0.668,-0.386L0.668,-0.376C0.668,-0.362 0.635,-0.349 0.57,-0.337L0.59,-0.279L0.58,-0.25L0.59,-0.191L0.58,-0.181L0.59,-0.181L0.58,-0.171L0.59,-0.054L0.59,0.004L0.58,-0.005L0.57,-0.005L0.6,0.141L0.58,0.141C0.58,0.122 0.574,0.112 0.561,0.112L0.561,0.122L0.57,0.151L0.561,0.151L0.551,0.141L0.541,0.141C0.541,0.161 0.535,0.17 0.521,0.17L0.473,0.004L0.463,0.004L0.463,0.043L0.453,0.043L0.434,-0.074L0.463,-0.054L0.463,-0.064C0.458,-0.123 0.448,-0.152 0.434,-0.152L0.443,-0.162L0.443,-0.191L0.424,-0.191L0.424,-0.162L0.414,-0.162L0.414,-0.201L0.424,-0.21L0.414,-0.21L0.404,-0.201L0.404,-0.24L0.414,-0.24L0.424,-0.23L0.434,-0.23L0.424,-0.24L0.424,-0.298L0.209,-0.25L0.209,-0.23L0.277,-0.25L0.316,-0.24L0.365,-0.25L0.365,-0.23C0.229,-0.206 0.16,-0.173 0.16,-0.132C0.143,-0.061 0.123,-0.015 0.102,0.004L0.102,0.024L0.072,0.024L0.063,0.014L0.053,0.014L0.053,0.024L0.023,0.004L0.043,-0.054L0.033,-0.054C0.014,-0.054 0.004,-0.028 0.004,0.024L-0.016,0.004L-0.006,-0.054L-0.035,-0.083L0.131,-0.484L0.141,-0.484C0.141,-0.464 0.147,-0.455 0.16,-0.455L0.17,-0.503L0.16,-0.494L0.15,-0.494L0.15,-0.533L0.16,-0.582L0.17,-0.572L0.18,-0.572L0.17,-0.582L0.17,-0.591L0.189,-0.63L0.199,-0.63L0.209,-0.621L0.219,-0.621L0.219,-0.63C0.219,-0.643 0.209,-0.65 0.189,-0.65L0.238,-0.787L0.277,-0.787L0.268,-0.777L0.268,-0.767C0.313,-0.793 0.355,-0.806 0.395,-0.806ZM0.336,-0.582L0.258,-0.376L0.277,-0.376C0.342,-0.376 0.378,-0.396 0.385,-0.435L0.346,-0.582L0.336,-0.582ZM0.248,-0.523L0.229,-0.455L0.219,-0.464L0.209,-0.464L0.219,-0.425L0.229,-0.425L0.258,-0.513L0.258,-0.523L0.248,-0.523ZM0.141,-0.435L0.131,-0.425L0.131,-0.406L0.141,-0.406L0.15,-0.435L0.141,-0.435ZM0.199,-0.396L0.189,-0.357L0.199,-0.357L0.209,-0.367L0.209,-0.396L0.199,-0.396ZM0.111,-0.386L0.102,-0.347L0.111,-0.347L0.131,-0.386L0.111,-0.386ZM0.277,-0.357L0.277,-0.347L0.297,-0.347C0.355,-0.354 0.385,-0.363 0.385,-0.376L0.375,-0.376L0.277,-0.357ZM0.414,-0.142L0.434,-0.142L0.434,-0.083L0.424,-0.083L0.414,-0.142ZM0.551,-0.074L0.551,-0.054L0.561,-0.015L0.57,-0.015L0.57,-0.035L0.561,-0.074L0.551,-0.074ZM0.453,-0.044L0.453,-0.025L0.482,-0.035L0.482,-0.054L0.453,-0.044Z" style="fill-rule:nonzero;"/>
            </g>
            <g transform="matrix(353.997,0,0,353.997,860.27,442.56)">
                <path d="M0.212,-0.756L0.281,-0.697C0.281,-0.717 0.287,-0.727 0.3,-0.727L0.31,-0.727L0.447,-0.375L0.447,-0.355L0.437,-0.355L0.417,-0.414L0.408,-0.414L0.408,-0.395L0.476,-0.229L0.486,-0.229C0.512,-0.398 0.549,-0.575 0.598,-0.759L0.627,-0.739L0.657,-0.749L0.715,-0.72L0.715,-0.71C0.696,-0.71 0.686,-0.697 0.686,-0.671L0.696,-0.671L0.706,-0.661L0.715,-0.661L0.725,-0.71L0.745,-0.71L0.745,-0.7L0.735,-0.69L0.745,-0.681L0.745,-0.671C0.696,-0.521 0.652,-0.305 0.613,-0.023L0.593,-0.023L0.613,-0.18C0.6,-0.18 0.58,-0.118 0.554,0.006C0.53,0.025 0.507,0.035 0.486,0.035L0.486,0.055L0.476,0.055C0.476,0.042 0.463,0.035 0.437,0.035L0.437,-0.033C0.437,-0.063 0.372,-0.225 0.242,-0.521L0.232,-0.521C0.206,-0.406 0.183,-0.249 0.164,-0.053L0.154,-0.063C0.115,-0.051 0.095,-0.035 0.095,-0.014L0.076,-0.014C0.063,-0.038 0.056,-0.08 0.056,-0.141L0.046,-0.141L0.046,-0.053L0.027,-0.053L0.017,-0.102C0.017,-0.279 0.056,-0.493 0.134,-0.746L0.212,-0.756ZM0.076,-0.512L0.076,-0.502L0.085,-0.492L0.076,-0.482L0.076,-0.463L0.085,-0.463L0.095,-0.502L0.085,-0.512L0.076,-0.512ZM0.447,-0.355C0.464,-0.355 0.477,-0.329 0.486,-0.277L0.486,-0.268L0.476,-0.268L0.447,-0.355Z" style="fill-rule:nonzero;"/>
            </g>
            <g transform="matrix(353.997,0,0,353.997,1126.63,442.56)">
                <path d="M0.155,-0.766L0.194,-0.766L0.224,-0.747L0.292,-0.756C0.405,-0.756 0.509,-0.691 0.604,-0.561L0.653,-0.463L0.644,-0.454L0.653,-0.405L0.653,-0.356C0.653,-0.189 0.517,-0.062 0.243,0.025L0.146,0.035C0.146,0.018 0.132,0.009 0.106,0.005L0.106,0.044L0.077,0.044L0.077,-0.014L0.067,-0.024L0.077,-0.034L0.077,-0.043C0.038,-0.07 0.019,-0.093 0.019,-0.112C0.038,-0.407 0.071,-0.622 0.116,-0.756L0.126,-0.756L0.136,-0.747L0.155,-0.766ZM0.116,-0.668L0.067,-0.385L0.067,-0.375L0.077,-0.375L0.126,-0.649L0.126,-0.668L0.116,-0.668ZM0.272,-0.6C0.272,-0.587 0.259,-0.581 0.233,-0.581C0.207,-0.462 0.188,-0.325 0.175,-0.17C0.213,-0.17 0.31,-0.203 0.468,-0.268L0.468,-0.278L0.448,-0.278C0.5,-0.331 0.526,-0.387 0.526,-0.444L0.526,-0.473C0.526,-0.545 0.478,-0.587 0.38,-0.6L0.272,-0.6ZM0.468,-0.6L0.468,-0.59L0.507,-0.571L0.507,-0.581L0.478,-0.6L0.468,-0.6ZM0.556,-0.463L0.546,-0.346L0.565,-0.346L0.565,-0.375L0.575,-0.415L0.565,-0.463L0.556,-0.463ZM0.624,-0.385L0.575,-0.229L0.575,-0.219L0.585,-0.219L0.634,-0.366L0.634,-0.385L0.624,-0.385ZM0.526,-0.317L0.507,-0.278L0.517,-0.278L0.536,-0.317L0.526,-0.317ZM0.468,-0.141C0.483,-0.143 0.506,-0.163 0.536,-0.2L0.536,-0.209L0.468,-0.141ZM0.243,-0.083L0.243,-0.073L0.282,-0.073L0.331,-0.092L0.331,-0.102L0.321,-0.102L0.243,-0.083ZM0.165,-0.073L0.175,-0.043L0.194,-0.043L0.214,-0.063L0.214,-0.073L0.204,-0.073L0.175,-0.063L0.165,-0.073ZM0.058,-0.014L0.067,-0.014L0.067,-0.004L0.048,0.015L0.038,0.015L0.038,0.005L0.058,-0.014Z" style="fill-rule:nonzero;"/>
            </g>
        </g>
    </g>
</svg>
